# Tiled2Unity generated file. Do not modify by hand.
# Wavefront file for 'test_house_mesh_0002.obj'

# Vertices (Count = 72)
v -384 -416 0
v -400 -416 0
v -400 -400 0
v -384 -400 0
v -368 -416 0
v -384 -416 0
v -384 -400 0
v -368 -400 0
v -480 -432 0
v -496 -432 0
v -496 -416 0
v -480 -416 0
v -448 -432 0
v -464 -432 0
v -464 -416 0
v -448 -416 0
v -384 -432 0
v -400 -432 0
v -400 -416 0
v -384 -416 0
v -368 -432 0
v -384 -432 0
v -384 -416 0
v -368 -416 0
v -432 -448 0
v -448 -448 0
v -448 -432 0
v -432 -432 0
v -416 -448 0
v -432 -448 0
v -432 -432 0
v -416 -432 0
v -400 -448 0
v -416 -448 0
v -416 -432 0
v -400 -432 0
v -432 -464 0
v -448 -464 0
v -448 -448 0
v -432 -448 0
v -416 -464 0
v -432 -464 0
v -432 -448 0
v -416 -448 0
v -400 -464 0
v -416 -464 0
v -416 -448 0
v -400 -448 0
v -384 -464 0
v -400 -464 0
v -400 -448 0
v -384 -448 0
v -368 -464 0
v -384 -464 0
v -384 -448 0
v -368 -448 0
v -432 -480 0
v -448 -480 0
v -448 -464 0
v -432 -464 0
v -416 -480 0
v -432 -480 0
v -432 -464 0
v -416 -464 0
v -400 -480 0
v -416 -480 0
v -416 -464 0
v -400 -464 0
v -384 -480 0
v -400 -480 0
v -400 -464 0
v -384 -464 0

# Texture cooridinates (Count = 72)
vt 0.2108659 0.7757875
vt 0.2271507 0.7757875
vt 0.2271507 0.8059616
vt 0.2108659 0.8059616
vt 0.2108659 0.8081068
vt 0.2271507 0.8081068
vt 0.2271507 0.838281
vt 0.2108659 0.838281
vt 0.2459898 0.9373844
vt 0.2622746 0.9373844
vt 0.2622746 0.9675586
vt 0.2459898 0.9675586
vt 0.5094196 0.9697038
vt 0.5257044 0.9697038
vt 0.5257044 0.9998779
vt 0.5094196 0.9998779
vt 0.1933039 0.7757875
vt 0.2095887 0.7757875
vt 0.2095887 0.8059616
vt 0.1933039 0.8059616
vt 0.1933039 0.8081068
vt 0.2095887 0.8081068
vt 0.2095887 0.838281
vt 0.1933039 0.838281
vt 0.2108659 0.743468
vt 0.2271507 0.743468
vt 0.2271507 0.7736422
vt 0.2108659 0.7736422
vt 0.1933039 0.743468
vt 0.2095887 0.743468
vt 0.2095887 0.7736422
vt 0.1933039 0.7736422
vt 0.1757419 0.743468
vt 0.1920267 0.743468
vt 0.1920267 0.7736422
vt 0.1757419 0.7736422
vt 0.2108659 0.7111487
vt 0.2271507 0.7111487
vt 0.2271507 0.7413228
vt 0.2108659 0.7413228
vt 0.1933039 0.7111487
vt 0.2095887 0.7111487
vt 0.2095887 0.7413228
vt 0.1933039 0.7413228
vt 0.1757419 0.7111487
vt 0.1920267 0.7111487
vt 0.1920267 0.7413228
vt 0.1757419 0.7413228
vt 0.3864857 0.7757875
vt 0.4027705 0.7757875
vt 0.4027705 0.8059616
vt 0.3864857 0.8059616
vt 0.3689237 0.8404263
vt 0.3852085 0.8404263
vt 0.3852085 0.8706003
vt 0.3689237 0.8706003
vt 0.2108659 0.6788293
vt 0.2271507 0.6788293
vt 0.2271507 0.7090034
vt 0.2108659 0.7090034
vt 0.1933039 0.6788293
vt 0.2095887 0.6788293
vt 0.2095887 0.7090034
vt 0.1933039 0.7090034
vt 0.1757419 0.6788293
vt 0.1920267 0.6788293
vt 0.1920267 0.7090034
vt 0.1757419 0.7090034
vt 0.3513618 0.8404263
vt 0.3676465 0.8404263
vt 0.3676465 0.8706003
vt 0.3513618 0.8706003

# Normal
vn 0 0 -1

# Mesh description
g test_house_mesh_0002

# Faces
f 1/1/1 2/2/1 3/3/1 4/4/1
f 5/5/1 6/6/1 7/7/1 8/8/1
f 9/9/1 10/10/1 11/11/1 12/12/1
f 13/13/1 14/14/1 15/15/1 16/16/1
f 17/17/1 18/18/1 19/19/1 20/20/1
f 21/21/1 22/22/1 23/23/1 24/24/1
f 25/25/1 26/26/1 27/27/1 28/28/1
f 29/29/1 30/30/1 31/31/1 32/32/1
f 33/33/1 34/34/1 35/35/1 36/36/1
f 37/37/1 38/38/1 39/39/1 40/40/1
f 41/41/1 42/42/1 43/43/1 44/44/1
f 45/45/1 46/46/1 47/47/1 48/48/1
f 49/49/1 50/50/1 51/51/1 52/52/1
f 53/53/1 54/54/1 55/55/1 56/56/1
f 57/57/1 58/58/1 59/59/1 60/60/1
f 61/61/1 62/62/1 63/63/1 64/64/1
f 65/65/1 66/66/1 67/67/1 68/68/1
f 69/69/1 70/70/1 71/71/1 72/72/1

