# Tiled2Unity generated file. Do not modify by hand.
# Wavefront file for 'test_map_mesh_0003.obj'

# Vertices (Count = 472)
v -336 -240 0
v -352 -240 0
v -352 -224 0
v -336 -224 0
v -320 -240 0
v -336 -240 0
v -336 -224 0
v -320 -224 0
v -304 -240 0
v -320 -240 0
v -320 -224 0
v -304 -224 0
v -288 -240 0
v -304 -240 0
v -304 -224 0
v -288 -224 0
v -336 -256 0
v -352 -256 0
v -352 -240 0
v -336 -240 0
v -320 -256 0
v -336 -256 0
v -336 -240 0
v -320 -240 0
v -304 -256 0
v -320 -256 0
v -320 -240 0
v -304 -240 0
v -288 -256 0
v -304 -256 0
v -304 -240 0
v -288 -240 0
v -800 -272 0
v -816 -272 0
v -816 -256 0
v -800 -256 0
v -784 -272 0
v -800 -272 0
v -800 -256 0
v -784 -256 0
v -768 -272 0
v -784 -272 0
v -784 -256 0
v -768 -256 0
v -752 -272 0
v -768 -272 0
v -768 -256 0
v -752 -256 0
v -592 -272 0
v -608 -272 0
v -608 -256 0
v -592 -256 0
v -576 -272 0
v -592 -272 0
v -592 -256 0
v -576 -256 0
v -560 -272 0
v -576 -272 0
v -576 -256 0
v -560 -256 0
v -544 -272 0
v -560 -272 0
v -560 -256 0
v -544 -256 0
v -528 -272 0
v -544 -272 0
v -544 -256 0
v -528 -256 0
v -512 -272 0
v -528 -272 0
v -528 -256 0
v -512 -256 0
v -496 -272 0
v -512 -272 0
v -512 -256 0
v -496 -256 0
v -480 -272 0
v -496 -272 0
v -496 -256 0
v -480 -256 0
v -336 -272 0
v -352 -272 0
v -352 -256 0
v -336 -256 0
v -320 -272 0
v -336 -272 0
v -336 -256 0
v -320 -256 0
v -304 -272 0
v -320 -272 0
v -320 -256 0
v -304 -256 0
v -288 -272 0
v -304 -272 0
v -304 -256 0
v -288 -256 0
v -800 -288 0
v -816 -288 0
v -816 -272 0
v -800 -272 0
v -784 -288 0
v -800 -288 0
v -800 -272 0
v -784 -272 0
v -768 -288 0
v -784 -288 0
v -784 -272 0
v -768 -272 0
v -752 -288 0
v -768 -288 0
v -768 -272 0
v -752 -272 0
v -592 -288 0
v -608 -288 0
v -608 -272 0
v -592 -272 0
v -576 -288 0
v -592 -288 0
v -592 -272 0
v -576 -272 0
v -560 -288 0
v -576 -288 0
v -576 -272 0
v -560 -272 0
v -544 -288 0
v -560 -288 0
v -560 -272 0
v -544 -272 0
v -528 -288 0
v -544 -288 0
v -544 -272 0
v -528 -272 0
v -512 -288 0
v -528 -288 0
v -528 -272 0
v -512 -272 0
v -496 -288 0
v -512 -288 0
v -512 -272 0
v -496 -272 0
v -480 -288 0
v -496 -288 0
v -496 -272 0
v -480 -272 0
v -336 -288 0
v -352 -288 0
v -352 -272 0
v -336 -272 0
v -320 -288 0
v -336 -288 0
v -336 -272 0
v -320 -272 0
v -304 -288 0
v -320 -288 0
v -320 -272 0
v -304 -272 0
v -288 -288 0
v -304 -288 0
v -304 -272 0
v -288 -272 0
v -800 -304 0
v -816 -304 0
v -816 -288 0
v -800 -288 0
v -784 -304 0
v -800 -304 0
v -800 -288 0
v -784 -288 0
v -768 -304 0
v -784 -304 0
v -784 -288 0
v -768 -288 0
v -752 -304 0
v -768 -304 0
v -768 -288 0
v -752 -288 0
v -592 -304 0
v -608 -304 0
v -608 -288 0
v -592 -288 0
v -576 -304 0
v -592 -304 0
v -592 -288 0
v -576 -288 0
v -560 -304 0
v -576 -304 0
v -576 -288 0
v -560 -288 0
v -544 -304 0
v -560 -304 0
v -560 -288 0
v -544 -288 0
v -528 -304 0
v -544 -304 0
v -544 -288 0
v -528 -288 0
v -512 -304 0
v -528 -304 0
v -528 -288 0
v -512 -288 0
v -496 -304 0
v -512 -304 0
v -512 -288 0
v -496 -288 0
v -480 -304 0
v -496 -304 0
v -496 -288 0
v -480 -288 0
v -336 -304 0
v -352 -304 0
v -352 -288 0
v -336 -288 0
v -320 -304 0
v -336 -304 0
v -336 -288 0
v -320 -288 0
v -304 -304 0
v -320 -304 0
v -320 -288 0
v -304 -288 0
v -288 -304 0
v -304 -304 0
v -304 -288 0
v -288 -288 0
v -800 -320 0
v -816 -320 0
v -816 -304 0
v -800 -304 0
v -784 -320 0
v -800 -320 0
v -800 -304 0
v -784 -304 0
v -768 -320 0
v -784 -320 0
v -784 -304 0
v -768 -304 0
v -752 -320 0
v -768 -320 0
v -768 -304 0
v -752 -304 0
v -592 -320 0
v -608 -320 0
v -608 -304 0
v -592 -304 0
v -576 -320 0
v -592 -320 0
v -592 -304 0
v -576 -304 0
v -560 -320 0
v -576 -320 0
v -576 -304 0
v -560 -304 0
v -544 -320 0
v -560 -320 0
v -560 -304 0
v -544 -304 0
v -528 -320 0
v -544 -320 0
v -544 -304 0
v -528 -304 0
v -512 -320 0
v -528 -320 0
v -528 -304 0
v -512 -304 0
v -496 -320 0
v -512 -320 0
v -512 -304 0
v -496 -304 0
v -480 -320 0
v -496 -320 0
v -496 -304 0
v -480 -304 0
v -800 -336 0
v -816 -336 0
v -816 -320 0
v -800 -320 0
v -784 -336 0
v -800 -336 0
v -800 -320 0
v -784 -320 0
v -768 -336 0
v -784 -336 0
v -784 -320 0
v -768 -320 0
v -752 -336 0
v -768 -336 0
v -768 -320 0
v -752 -320 0
v -592 -336 0
v -608 -336 0
v -608 -320 0
v -592 -320 0
v -576 -336 0
v -592 -336 0
v -592 -320 0
v -576 -320 0
v -560 -336 0
v -576 -336 0
v -576 -320 0
v -560 -320 0
v -544 -336 0
v -560 -336 0
v -560 -320 0
v -544 -320 0
v -528 -336 0
v -544 -336 0
v -544 -320 0
v -528 -320 0
v -512 -336 0
v -528 -336 0
v -528 -320 0
v -512 -320 0
v -496 -336 0
v -512 -336 0
v -512 -320 0
v -496 -320 0
v -480 -336 0
v -496 -336 0
v -496 -320 0
v -480 -320 0
v -336 -464 0
v -352 -464 0
v -352 -448 0
v -336 -448 0
v -320 -464 0
v -336 -464 0
v -336 -448 0
v -320 -448 0
v -304 -464 0
v -320 -464 0
v -320 -448 0
v -304 -448 0
v -288 -464 0
v -304 -464 0
v -304 -448 0
v -288 -448 0
v -336 -480 0
v -352 -480 0
v -352 -464 0
v -336 -464 0
v -320 -480 0
v -336 -480 0
v -336 -464 0
v -320 -464 0
v -304 -480 0
v -320 -480 0
v -320 -464 0
v -304 -464 0
v -288 -480 0
v -304 -480 0
v -304 -464 0
v -288 -464 0
v -704 -496 0
v -720 -496 0
v -720 -480 0
v -704 -480 0
v -688 -496 0
v -704 -496 0
v -704 -480 0
v -688 -480 0
v -336 -496 0
v -352 -496 0
v -352 -480 0
v -336 -480 0
v -320 -496 0
v -336 -496 0
v -336 -480 0
v -320 -480 0
v -304 -496 0
v -320 -496 0
v -320 -480 0
v -304 -480 0
v -288 -496 0
v -304 -496 0
v -304 -480 0
v -288 -480 0
v -720 -512 0
v -736 -512 0
v -736 -496 0
v -720 -496 0
v -704 -512 0
v -720 -512 0
v -720 -496 0
v -704 -496 0
v -688 -512 0
v -704 -512 0
v -704 -496 0
v -688 -496 0
v -672 -512 0
v -688 -512 0
v -688 -496 0
v -672 -496 0
v -336 -512 0
v -352 -512 0
v -352 -496 0
v -336 -496 0
v -320 -512 0
v -336 -512 0
v -336 -496 0
v -320 -496 0
v -304 -512 0
v -320 -512 0
v -320 -496 0
v -304 -496 0
v -288 -512 0
v -304 -512 0
v -304 -496 0
v -288 -496 0
v -720 -528 0
v -736 -528 0
v -736 -512 0
v -720 -512 0
v -704 -528 0
v -720 -528 0
v -720 -512 0
v -704 -512 0
v -688 -528 0
v -704 -528 0
v -704 -512 0
v -688 -512 0
v -672 -528 0
v -688 -528 0
v -688 -512 0
v -672 -512 0
v -336 -528 0
v -352 -528 0
v -352 -512 0
v -336 -512 0
v -320 -528 0
v -336 -528 0
v -336 -512 0
v -320 -512 0
v -304 -528 0
v -320 -528 0
v -320 -512 0
v -304 -512 0
v -288 -528 0
v -304 -528 0
v -304 -512 0
v -288 -512 0
v -720 -544 0
v -736 -544 0
v -736 -528 0
v -720 -528 0
v -704 -544 0
v -720 -544 0
v -720 -528 0
v -704 -528 0
v -688 -544 0
v -704 -544 0
v -704 -528 0
v -688 -528 0
v -672 -544 0
v -688 -544 0
v -688 -528 0
v -672 -528 0
v -720 -560 0
v -736 -560 0
v -736 -544 0
v -720 -544 0
v -704 -560 0
v -720 -560 0
v -720 -544 0
v -704 -544 0
v -688 -560 0
v -704 -560 0
v -704 -544 0
v -688 -544 0
v -672 -560 0
v -688 -560 0
v -688 -544 0
v -672 -544 0

# Texture cooridinates (Count = 36)
vt 0.3337997 0.2909966
vt 0.3500845 0.2909966
vt 0.3500845 0.3211707
vt 0.3337997 0.3211707
vt 0.3162378 0.2909966
vt 0.3325226 0.2909966
vt 0.3325226 0.3211707
vt 0.3162378 0.3211707
vt 0.2986758 0.2909966
vt 0.3149606 0.2909966
vt 0.3149606 0.3211707
vt 0.2986758 0.3211707
vt 0.3337997 0.2586772
vt 0.3500845 0.2586772
vt 0.3500845 0.2888513
vt 0.3337997 0.2888513
vt 0.3162378 0.2586772
vt 0.3325226 0.2586772
vt 0.3325226 0.2888513
vt 0.3162378 0.2888513
vt 0.2986758 0.2586772
vt 0.3149606 0.2586772
vt 0.3149606 0.2888513
vt 0.2986758 0.2888513
vt 0.3337997 0.2263578
vt 0.3500845 0.2263578
vt 0.3500845 0.2565319
vt 0.3337997 0.2565319
vt 0.3162378 0.2263578
vt 0.3325226 0.2263578
vt 0.3325226 0.2565319
vt 0.3162378 0.2565319
vt 0.2986758 0.2263578
vt 0.3149606 0.2263578
vt 0.3149606 0.2565319
vt 0.2986758 0.2565319

# Normal
vn 0 0 -1

# Mesh description
g test_map_mesh_0003

# Faces
f 1/1/1 2/2/1 3/3/1 4/4/1
f 5/5/1 6/6/1 7/7/1 8/8/1
f 9/5/1 10/6/1 11/7/1 12/8/1
f 13/9/1 14/10/1 15/11/1 16/12/1
f 17/13/1 18/14/1 19/15/1 20/16/1
f 21/17/1 22/18/1 23/19/1 24/20/1
f 25/17/1 26/18/1 27/19/1 28/20/1
f 29/21/1 30/22/1 31/23/1 32/24/1
f 33/1/1 34/2/1 35/3/1 36/4/1
f 37/5/1 38/6/1 39/7/1 40/8/1
f 41/5/1 42/6/1 43/7/1 44/8/1
f 45/9/1 46/10/1 47/11/1 48/12/1
f 49/1/1 50/2/1 51/3/1 52/4/1
f 53/5/1 54/6/1 55/7/1 56/8/1
f 57/5/1 58/6/1 59/7/1 60/8/1
f 61/9/1 62/10/1 63/11/1 64/12/1
f 65/1/1 66/2/1 67/3/1 68/4/1
f 69/5/1 70/6/1 71/7/1 72/8/1
f 73/5/1 74/6/1 75/7/1 76/8/1
f 77/9/1 78/10/1 79/11/1 80/12/1
f 81/13/1 82/14/1 83/15/1 84/16/1
f 85/17/1 86/18/1 87/19/1 88/20/1
f 89/17/1 90/18/1 91/19/1 92/20/1
f 93/21/1 94/22/1 95/23/1 96/24/1
f 97/13/1 98/14/1 99/15/1 100/16/1
f 101/17/1 102/18/1 103/19/1 104/20/1
f 105/17/1 106/18/1 107/19/1 108/20/1
f 109/21/1 110/22/1 111/23/1 112/24/1
f 113/13/1 114/14/1 115/15/1 116/16/1
f 117/17/1 118/18/1 119/19/1 120/20/1
f 121/17/1 122/18/1 123/19/1 124/20/1
f 125/21/1 126/22/1 127/23/1 128/24/1
f 129/13/1 130/14/1 131/15/1 132/16/1
f 133/17/1 134/18/1 135/19/1 136/20/1
f 137/17/1 138/18/1 139/19/1 140/20/1
f 141/21/1 142/22/1 143/23/1 144/24/1
f 145/13/1 146/14/1 147/15/1 148/16/1
f 149/17/1 150/18/1 151/19/1 152/20/1
f 153/17/1 154/18/1 155/19/1 156/20/1
f 157/21/1 158/22/1 159/23/1 160/24/1
f 161/13/1 162/14/1 163/15/1 164/16/1
f 165/17/1 166/18/1 167/19/1 168/20/1
f 169/17/1 170/18/1 171/19/1 172/20/1
f 173/21/1 174/22/1 175/23/1 176/24/1
f 177/13/1 178/14/1 179/15/1 180/16/1
f 181/17/1 182/18/1 183/19/1 184/20/1
f 185/17/1 186/18/1 187/19/1 188/20/1
f 189/21/1 190/22/1 191/23/1 192/24/1
f 193/13/1 194/14/1 195/15/1 196/16/1
f 197/17/1 198/18/1 199/19/1 200/20/1
f 201/17/1 202/18/1 203/19/1 204/20/1
f 205/21/1 206/22/1 207/23/1 208/24/1
f 209/25/1 210/26/1 211/27/1 212/28/1
f 213/29/1 214/30/1 215/31/1 216/32/1
f 217/29/1 218/30/1 219/31/1 220/32/1
f 221/33/1 222/34/1 223/35/1 224/36/1
f 225/13/1 226/14/1 227/15/1 228/16/1
f 229/17/1 230/18/1 231/19/1 232/20/1
f 233/17/1 234/18/1 235/19/1 236/20/1
f 237/21/1 238/22/1 239/23/1 240/24/1
f 241/13/1 242/14/1 243/15/1 244/16/1
f 245/17/1 246/18/1 247/19/1 248/20/1
f 249/17/1 250/18/1 251/19/1 252/20/1
f 253/21/1 254/22/1 255/23/1 256/24/1
f 257/13/1 258/14/1 259/15/1 260/16/1
f 261/17/1 262/18/1 263/19/1 264/20/1
f 265/17/1 266/18/1 267/19/1 268/20/1
f 269/21/1 270/22/1 271/23/1 272/24/1
f 273/25/1 274/26/1 275/27/1 276/28/1
f 277/29/1 278/30/1 279/31/1 280/32/1
f 281/29/1 282/30/1 283/31/1 284/32/1
f 285/33/1 286/34/1 287/35/1 288/36/1
f 289/25/1 290/26/1 291/27/1 292/28/1
f 293/29/1 294/30/1 295/31/1 296/32/1
f 297/29/1 298/30/1 299/31/1 300/32/1
f 301/33/1 302/34/1 303/35/1 304/36/1
f 305/25/1 306/26/1 307/27/1 308/28/1
f 309/29/1 310/30/1 311/31/1 312/32/1
f 313/29/1 314/30/1 315/31/1 316/32/1
f 317/33/1 318/34/1 319/35/1 320/36/1
f 321/1/1 322/2/1 323/3/1 324/4/1
f 325/5/1 326/6/1 327/7/1 328/8/1
f 329/5/1 330/6/1 331/7/1 332/8/1
f 333/9/1 334/10/1 335/11/1 336/12/1
f 337/13/1 338/14/1 339/15/1 340/16/1
f 341/17/1 342/18/1 343/19/1 344/20/1
f 345/17/1 346/18/1 347/19/1 348/20/1
f 349/21/1 350/22/1 351/23/1 352/24/1
f 353/5/1 354/6/1 355/7/1 356/8/1
f 357/5/1 358/6/1 359/7/1 360/8/1
f 361/13/1 362/14/1 363/15/1 364/16/1
f 365/17/1 366/18/1 367/19/1 368/20/1
f 369/17/1 370/18/1 371/19/1 372/20/1
f 373/21/1 374/22/1 375/23/1 376/24/1
f 377/13/1 378/14/1 379/15/1 380/16/1
f 381/17/1 382/18/1 383/19/1 384/20/1
f 385/17/1 386/18/1 387/19/1 388/20/1
f 389/21/1 390/22/1 391/23/1 392/24/1
f 393/13/1 394/14/1 395/15/1 396/16/1
f 397/17/1 398/18/1 399/19/1 400/20/1
f 401/17/1 402/18/1 403/19/1 404/20/1
f 405/21/1 406/22/1 407/23/1 408/24/1
f 409/17/1 410/18/1 411/19/1 412/20/1
f 413/17/1 414/18/1 415/19/1 416/20/1
f 417/17/1 418/18/1 419/19/1 420/20/1
f 421/21/1 422/22/1 423/23/1 424/24/1
f 425/25/1 426/26/1 427/27/1 428/28/1
f 429/29/1 430/30/1 431/31/1 432/32/1
f 433/29/1 434/30/1 435/31/1 436/32/1
f 437/33/1 438/34/1 439/35/1 440/36/1
f 441/17/1 442/18/1 443/19/1 444/20/1
f 445/17/1 446/18/1 447/19/1 448/20/1
f 449/17/1 450/18/1 451/19/1 452/20/1
f 453/21/1 454/22/1 455/23/1 456/24/1
f 457/29/1 458/30/1 459/31/1 460/32/1
f 461/29/1 462/30/1 463/31/1 464/32/1
f 465/29/1 466/30/1 467/31/1 468/32/1
f 469/33/1 470/34/1 471/35/1 472/36/1

