# Tiled2Unity generated file. Do not modify by hand.
# Wavefront file for 'test_map_mesh_0007.obj'

# Vertices (Count = 308)
v -592 -144 0
v -608 -144 0
v -608 -128 0
v -592 -128 0
v -832 -160 0
v -848 -160 0
v -848 -144 0
v -832 -144 0
v -528 -160 0
v -544 -160 0
v -544 -144 0
v -528 -144 0
v -368 -160 0
v -384 -160 0
v -384 -144 0
v -368 -144 0
v -752 -176 0
v -768 -176 0
v -768 -160 0
v -752 -160 0
v -672 -176 0
v -688 -176 0
v -688 -160 0
v -672 -160 0
v -288 -176 0
v -304 -176 0
v -304 -160 0
v -288 -160 0
v -800 -192 0
v -816 -192 0
v -816 -176 0
v -800 -176 0
v -720 -192 0
v -736 -192 0
v -736 -176 0
v -720 -176 0
v -672 -192 0
v -688 -192 0
v -688 -176 0
v -672 -176 0
v -608 -192 0
v -624 -192 0
v -624 -176 0
v -608 -176 0
v -464 -192 0
v -480 -192 0
v -480 -176 0
v -464 -176 0
v -432 -192 0
v -448 -192 0
v -448 -176 0
v -432 -176 0
v -240 -208 0
v -256 -208 0
v -256 -192 0
v -240 -192 0
v -864 -224 0
v -880 -224 0
v -880 -208 0
v -864 -208 0
v -800 -224 0
v -816 -224 0
v -816 -208 0
v -800 -208 0
v -656 -224 0
v -672 -224 0
v -672 -208 0
v -656 -208 0
v -624 -224 0
v -640 -224 0
v -640 -208 0
v -624 -208 0
v -560 -224 0
v -576 -224 0
v -576 -208 0
v -560 -208 0
v -464 -224 0
v -480 -224 0
v -480 -208 0
v -464 -208 0
v -384 -224 0
v -400 -224 0
v -400 -208 0
v -384 -208 0
v -704 -240 0
v -720 -240 0
v -720 -224 0
v -704 -224 0
v -416 -240 0
v -432 -240 0
v -432 -224 0
v -416 -224 0
v -224 -240 0
v -240 -240 0
v -240 -224 0
v -224 -224 0
v -256 -256 0
v -272 -256 0
v -272 -240 0
v -256 -240 0
v -240 -256 0
v -256 -256 0
v -256 -240 0
v -240 -240 0
v -896 -272 0
v -912 -272 0
v -912 -256 0
v -896 -256 0
v -640 -272 0
v -656 -272 0
v -656 -256 0
v -640 -256 0
v -400 -272 0
v -416 -272 0
v -416 -256 0
v -400 -256 0
v -848 -288 0
v -864 -288 0
v -864 -272 0
v -848 -272 0
v -704 -288 0
v -720 -288 0
v -720 -272 0
v -704 -272 0
v -368 -288 0
v -384 -288 0
v -384 -272 0
v -368 -272 0
v -224 -288 0
v -240 -288 0
v -240 -272 0
v -224 -272 0
v -736 -304 0
v -752 -304 0
v -752 -288 0
v -736 -288 0
v -688 -304 0
v -704 -304 0
v -704 -288 0
v -688 -288 0
v -624 -304 0
v -640 -304 0
v -640 -288 0
v -624 -288 0
v -256 -304 0
v -272 -304 0
v -272 -288 0
v -256 -288 0
v -896 -320 0
v -912 -320 0
v -912 -304 0
v -896 -304 0
v -864 -320 0
v -880 -320 0
v -880 -304 0
v -864 -304 0
v -224 -336 0
v -240 -336 0
v -240 -320 0
v -224 -320 0
v -928 -352 0
v -944 -352 0
v -944 -336 0
v -928 -336 0
v -208 -368 0
v -224 -368 0
v -224 -352 0
v -208 -352 0
v -944 -400 0
v -960 -400 0
v -960 -384 0
v -944 -384 0
v -224 -400 0
v -240 -400 0
v -240 -384 0
v -224 -384 0
v -256 -416 0
v -272 -416 0
v -272 -400 0
v -256 -400 0
v -928 -432 0
v -944 -432 0
v -944 -416 0
v -928 -416 0
v -896 -448 0
v -912 -448 0
v -912 -432 0
v -896 -432 0
v -832 -448 0
v -848 -448 0
v -848 -432 0
v -832 -432 0
v -736 -448 0
v -752 -448 0
v -752 -432 0
v -736 -432 0
v -368 -448 0
v -384 -448 0
v -384 -432 0
v -368 -432 0
v -208 -448 0
v -224 -448 0
v -224 -432 0
v -208 -432 0
v -848 -464 0
v -864 -464 0
v -864 -448 0
v -848 -448 0
v -368 -464 0
v -384 -464 0
v -384 -448 0
v -368 -448 0
v -960 -480 0
v -976 -480 0
v -976 -464 0
v -960 -464 0
v -800 -480 0
v -816 -480 0
v -816 -464 0
v -800 -464 0
v -368 -480 0
v -384 -480 0
v -384 -464 0
v -368 -464 0
v -912 -496 0
v -928 -496 0
v -928 -480 0
v -912 -480 0
v -832 -496 0
v -848 -496 0
v -848 -480 0
v -832 -480 0
v -368 -496 0
v -384 -496 0
v -384 -480 0
v -368 -480 0
v -208 -496 0
v -224 -496 0
v -224 -480 0
v -208 -480 0
v -784 -512 0
v -800 -512 0
v -800 -496 0
v -784 -496 0
v -368 -512 0
v -384 -512 0
v -384 -496 0
v -368 -496 0
v -896 -528 0
v -912 -528 0
v -912 -512 0
v -896 -512 0
v -832 -528 0
v -848 -528 0
v -848 -512 0
v -832 -512 0
v -208 -528 0
v -224 -528 0
v -224 -512 0
v -208 -512 0
v -960 -544 0
v -976 -544 0
v -976 -528 0
v -960 -528 0
v -928 -544 0
v -944 -544 0
v -944 -528 0
v -928 -528 0
v -816 -544 0
v -832 -544 0
v -832 -528 0
v -816 -528 0
v -928 -560 0
v -944 -560 0
v -944 -544 0
v -928 -544 0
v -224 -560 0
v -240 -560 0
v -240 -544 0
v -224 -544 0
v -880 -576 0
v -896 -576 0
v -896 -560 0
v -880 -560 0
v -880 -592 0
v -896 -592 0
v -896 -576 0
v -880 -576 0
v -784 -592 0
v -800 -592 0
v -800 -576 0
v -784 -576 0
v -208 -592 0
v -224 -592 0
v -224 -576 0
v -208 -576 0
v -960 -608 0
v -976 -608 0
v -976 -592 0
v -960 -592 0
v -832 -608 0
v -848 -608 0
v -848 -592 0
v -832 -592 0
v -240 -608 0
v -256 -608 0
v -256 -592 0
v -240 -592 0

# Texture cooridinates (Count = 16)
vt 0.5269816 0.6788293
vt 0.5432664 0.6788293
vt 0.5432664 0.7090034
vt 0.5269816 0.7090034
vt 0.5094196 0.6788293
vt 0.5257044 0.6788293
vt 0.5257044 0.7090034
vt 0.5094196 0.7090034
vt 0.4918576 0.6788293
vt 0.5081424 0.6788293
vt 0.5081424 0.7090034
vt 0.4918576 0.7090034
vt 0.9309072 0.2586772
vt 0.947192 0.2586772
vt 0.947192 0.2888513
vt 0.9309072 0.2888513

# Normal
vn 0 0 -1

# Mesh description
g test_map_mesh_0007

# Faces
f 1/1/1 2/2/1 3/3/1 4/4/1
f 5/5/1 6/6/1 7/7/1 8/8/1
f 9/5/1 10/6/1 11/7/1 12/8/1
f 13/5/1 14/6/1 15/7/1 16/8/1
f 17/1/1 18/2/1 19/3/1 20/4/1
f 21/1/1 22/2/1 23/3/1 24/4/1
f 25/1/1 26/2/1 27/3/1 28/4/1
f 29/5/1 30/6/1 31/7/1 32/8/1
f 33/9/1 34/10/1 35/11/1 36/12/1
f 37/5/1 38/6/1 39/7/1 40/8/1
f 41/9/1 42/10/1 43/11/1 44/12/1
f 45/1/1 46/2/1 47/3/1 48/4/1
f 49/9/1 50/10/1 51/11/1 52/12/1
f 53/9/1 54/10/1 55/11/1 56/12/1
f 57/9/1 58/10/1 59/11/1 60/12/1
f 61/1/1 62/2/1 63/3/1 64/4/1
f 65/9/1 66/10/1 67/11/1 68/12/1
f 69/1/1 70/2/1 71/3/1 72/4/1
f 73/5/1 74/6/1 75/7/1 76/8/1
f 77/5/1 78/6/1 79/7/1 80/8/1
f 81/1/1 82/2/1 83/3/1 84/4/1
f 85/5/1 86/6/1 87/7/1 88/8/1
f 89/5/1 90/6/1 91/7/1 92/8/1
f 93/1/1 94/2/1 95/3/1 96/4/1
f 97/5/1 98/6/1 99/7/1 100/8/1
f 101/5/1 102/6/1 103/7/1 104/8/1
f 105/5/1 106/6/1 107/7/1 108/8/1
f 109/5/1 110/6/1 111/7/1 112/8/1
f 113/9/1 114/10/1 115/11/1 116/12/1
f 117/5/1 118/6/1 119/7/1 120/8/1
f 121/1/1 122/2/1 123/3/1 124/4/1
f 125/1/1 126/2/1 127/3/1 128/4/1
f 129/9/1 130/10/1 131/11/1 132/12/1
f 133/13/1 134/14/1 135/15/1 136/16/1
f 137/9/1 138/10/1 139/11/1 140/12/1
f 141/1/1 142/2/1 143/3/1 144/4/1
f 145/1/1 146/2/1 147/3/1 148/4/1
f 149/1/1 150/2/1 151/3/1 152/4/1
f 153/9/1 154/10/1 155/11/1 156/12/1
f 157/5/1 158/6/1 159/7/1 160/8/1
f 161/9/1 162/10/1 163/11/1 164/12/1
f 165/1/1 166/2/1 167/3/1 168/4/1
f 169/5/1 170/6/1 171/7/1 172/8/1
f 173/9/1 174/10/1 175/11/1 176/12/1
f 177/5/1 178/6/1 179/7/1 180/8/1
f 181/5/1 182/6/1 183/7/1 184/8/1
f 185/1/1 186/2/1 187/3/1 188/4/1
f 189/5/1 190/6/1 191/7/1 192/8/1
f 193/9/1 194/10/1 195/11/1 196/12/1
f 197/9/1 198/10/1 199/11/1 200/12/1
f 201/1/1 202/2/1 203/3/1 204/4/1
f 205/1/1 206/2/1 207/3/1 208/4/1
f 209/1/1 210/2/1 211/3/1 212/4/1
f 213/1/1 214/2/1 215/3/1 216/4/1
f 217/9/1 218/10/1 219/11/1 220/12/1
f 221/5/1 222/6/1 223/7/1 224/8/1
f 225/9/1 226/10/1 227/11/1 228/12/1
f 229/5/1 230/6/1 231/7/1 232/8/1
f 233/1/1 234/2/1 235/3/1 236/4/1
f 237/9/1 238/10/1 239/11/1 240/12/1
f 241/5/1 242/6/1 243/7/1 244/8/1
f 245/5/1 246/6/1 247/7/1 248/8/1
f 249/5/1 250/6/1 251/7/1 252/8/1
f 253/5/1 254/6/1 255/7/1 256/8/1
f 257/5/1 258/6/1 259/7/1 260/8/1
f 261/5/1 262/6/1 263/7/1 264/8/1
f 265/9/1 266/10/1 267/11/1 268/12/1
f 269/9/1 270/10/1 271/11/1 272/12/1
f 273/1/1 274/2/1 275/3/1 276/4/1
f 277/9/1 278/10/1 279/11/1 280/12/1
f 281/9/1 282/10/1 283/11/1 284/12/1
f 285/5/1 286/6/1 287/7/1 288/8/1
f 289/5/1 290/6/1 291/7/1 292/8/1
f 293/1/1 294/2/1 295/3/1 296/4/1
f 297/9/1 298/10/1 299/11/1 300/12/1
f 301/9/1 302/10/1 303/11/1 304/12/1
f 305/9/1 306/10/1 307/11/1 308/12/1

