# Tiled2Unity generated file. Do not modify by hand.
# Wavefront file for 'test_map_mesh_0004.obj'

# Vertices (Count = 292)
v -320 -208 0
v -336 -208 0
v -336 -192 0
v -320 -192 0
v -304 -208 0
v -320 -208 0
v -320 -192 0
v -304 -192 0
v -336 -224 0
v -352 -224 0
v -352 -208 0
v -336 -208 0
v -320 -224 0
v -336 -224 0
v -336 -208 0
v -320 -208 0
v -304 -224 0
v -320 -224 0
v -320 -208 0
v -304 -208 0
v -288 -224 0
v -304 -224 0
v -304 -208 0
v -288 -208 0
v -784 -240 0
v -800 -240 0
v -800 -224 0
v -784 -224 0
v -768 -240 0
v -784 -240 0
v -784 -224 0
v -768 -224 0
v -576 -240 0
v -592 -240 0
v -592 -224 0
v -576 -224 0
v -560 -240 0
v -576 -240 0
v -576 -224 0
v -560 -224 0
v -512 -240 0
v -528 -240 0
v -528 -224 0
v -512 -224 0
v -496 -240 0
v -512 -240 0
v -512 -224 0
v -496 -224 0
v -336 -240 0
v -352 -240 0
v -352 -224 0
v -336 -224 0
v -320 -240 0
v -336 -240 0
v -336 -224 0
v -320 -224 0
v -304 -240 0
v -320 -240 0
v -320 -224 0
v -304 -224 0
v -288 -240 0
v -304 -240 0
v -304 -224 0
v -288 -224 0
v -800 -256 0
v -816 -256 0
v -816 -240 0
v -800 -240 0
v -784 -256 0
v -800 -256 0
v -800 -240 0
v -784 -240 0
v -768 -256 0
v -784 -256 0
v -784 -240 0
v -768 -240 0
v -752 -256 0
v -768 -256 0
v -768 -240 0
v -752 -240 0
v -592 -256 0
v -608 -256 0
v -608 -240 0
v -592 -240 0
v -576 -256 0
v -592 -256 0
v -592 -240 0
v -576 -240 0
v -560 -256 0
v -576 -256 0
v -576 -240 0
v -560 -240 0
v -544 -256 0
v -560 -256 0
v -560 -240 0
v -544 -240 0
v -528 -256 0
v -544 -256 0
v -544 -240 0
v -528 -240 0
v -512 -256 0
v -528 -256 0
v -528 -240 0
v -512 -240 0
v -496 -256 0
v -512 -256 0
v -512 -240 0
v -496 -240 0
v -480 -256 0
v -496 -256 0
v -496 -240 0
v -480 -240 0
v -336 -256 0
v -352 -256 0
v -352 -240 0
v -336 -240 0
v -288 -256 0
v -304 -256 0
v -304 -240 0
v -288 -240 0
v -800 -272 0
v -816 -272 0
v -816 -256 0
v -800 -256 0
v -784 -272 0
v -800 -272 0
v -800 -256 0
v -784 -256 0
v -768 -272 0
v -784 -272 0
v -784 -256 0
v -768 -256 0
v -752 -272 0
v -768 -272 0
v -768 -256 0
v -752 -256 0
v -592 -272 0
v -608 -272 0
v -608 -256 0
v -592 -256 0
v -576 -272 0
v -592 -272 0
v -592 -256 0
v -576 -256 0
v -560 -272 0
v -576 -272 0
v -576 -256 0
v -560 -256 0
v -544 -272 0
v -560 -272 0
v -560 -256 0
v -544 -256 0
v -528 -272 0
v -544 -272 0
v -544 -256 0
v -528 -256 0
v -512 -272 0
v -528 -272 0
v -528 -256 0
v -512 -256 0
v -496 -272 0
v -512 -272 0
v -512 -256 0
v -496 -256 0
v -480 -272 0
v -496 -272 0
v -496 -256 0
v -480 -256 0
v -800 -288 0
v -816 -288 0
v -816 -272 0
v -800 -272 0
v -752 -288 0
v -768 -288 0
v -768 -272 0
v -752 -272 0
v -592 -288 0
v -608 -288 0
v -608 -272 0
v -592 -272 0
v -544 -288 0
v -560 -288 0
v -560 -272 0
v -544 -272 0
v -528 -288 0
v -544 -288 0
v -544 -272 0
v -528 -272 0
v -480 -288 0
v -496 -288 0
v -496 -272 0
v -480 -272 0
v -768 -304 0
v -784 -304 0
v -784 -288 0
v -768 -288 0
v -320 -432 0
v -336 -432 0
v -336 -416 0
v -320 -416 0
v -304 -432 0
v -320 -432 0
v -320 -416 0
v -304 -416 0
v -336 -448 0
v -352 -448 0
v -352 -432 0
v -336 -432 0
v -320 -448 0
v -336 -448 0
v -336 -432 0
v -320 -432 0
v -304 -448 0
v -320 -448 0
v -320 -432 0
v -304 -432 0
v -288 -448 0
v -304 -448 0
v -304 -432 0
v -288 -432 0
v -704 -464 0
v -720 -464 0
v -720 -448 0
v -704 -448 0
v -688 -464 0
v -704 -464 0
v -704 -448 0
v -688 -448 0
v -336 -464 0
v -352 -464 0
v -352 -448 0
v -336 -448 0
v -320 -464 0
v -336 -464 0
v -336 -448 0
v -320 -448 0
v -304 -464 0
v -320 -464 0
v -320 -448 0
v -304 -448 0
v -288 -464 0
v -304 -464 0
v -304 -448 0
v -288 -448 0
v -720 -480 0
v -736 -480 0
v -736 -464 0
v -720 -464 0
v -704 -480 0
v -720 -480 0
v -720 -464 0
v -704 -464 0
v -688 -480 0
v -704 -480 0
v -704 -464 0
v -688 -464 0
v -672 -480 0
v -688 -480 0
v -688 -464 0
v -672 -464 0
v -336 -480 0
v -352 -480 0
v -352 -464 0
v -336 -464 0
v -288 -480 0
v -304 -480 0
v -304 -464 0
v -288 -464 0
v -720 -496 0
v -736 -496 0
v -736 -480 0
v -720 -480 0
v -704 -496 0
v -720 -496 0
v -720 -480 0
v -704 -480 0
v -688 -496 0
v -704 -496 0
v -704 -480 0
v -688 -480 0
v -672 -496 0
v -688 -496 0
v -688 -480 0
v -672 -480 0
v -720 -512 0
v -736 -512 0
v -736 -496 0
v -720 -496 0
v -672 -512 0
v -688 -512 0
v -688 -496 0
v -672 -496 0

# Texture cooridinates (Count = 28)
vt 0.3689237 0.2909966
vt 0.3852085 0.2909966
vt 0.3852085 0.3211707
vt 0.3689237 0.3211707
vt 0.3513618 0.2909966
vt 0.3676465 0.2909966
vt 0.3676465 0.3211707
vt 0.3513618 0.3211707
vt 0.3689237 0.2586772
vt 0.3852085 0.2586772
vt 0.3852085 0.2888513
vt 0.3689237 0.2888513
vt 0.3513618 0.2586772
vt 0.3676465 0.2586772
vt 0.3676465 0.2888513
vt 0.3513618 0.2888513
vt 0.3689237 0.2263578
vt 0.3852085 0.2263578
vt 0.3852085 0.2565319
vt 0.3689237 0.2565319
vt 0.3513618 0.2263578
vt 0.3676465 0.2263578
vt 0.3676465 0.2565319
vt 0.3513618 0.2565319
vt 0.7026014 0.9697038
vt 0.7188862 0.9697038
vt 0.7188862 0.9998779
vt 0.7026014 0.9998779

# Normal
vn 0 0 -1

# Mesh description
g test_map_mesh_0004

# Faces
f 1/1/1 2/2/1 3/3/1 4/4/1
f 5/5/1 6/6/1 7/7/1 8/8/1
f 9/1/1 10/2/1 11/3/1 12/4/1
f 13/9/1 14/10/1 15/11/1 16/12/1
f 17/13/1 18/14/1 19/15/1 20/16/1
f 21/5/1 22/6/1 23/7/1 24/8/1
f 25/1/1 26/2/1 27/3/1 28/4/1
f 29/5/1 30/6/1 31/7/1 32/8/1
f 33/1/1 34/2/1 35/3/1 36/4/1
f 37/5/1 38/6/1 39/7/1 40/8/1
f 41/1/1 42/2/1 43/3/1 44/4/1
f 45/5/1 46/6/1 47/7/1 48/8/1
f 49/9/1 50/10/1 51/11/1 52/12/1
f 53/17/1 54/18/1 55/19/1 56/20/1
f 57/21/1 58/22/1 59/23/1 60/24/1
f 61/13/1 62/14/1 63/15/1 64/16/1
f 65/1/1 66/2/1 67/3/1 68/4/1
f 69/9/1 70/10/1 71/11/1 72/12/1
f 73/13/1 74/14/1 75/15/1 76/16/1
f 77/5/1 78/6/1 79/7/1 80/8/1
f 81/1/1 82/2/1 83/3/1 84/4/1
f 85/9/1 86/10/1 87/11/1 88/12/1
f 89/13/1 90/14/1 91/15/1 92/16/1
f 93/5/1 94/6/1 95/7/1 96/8/1
f 97/1/1 98/2/1 99/3/1 100/4/1
f 101/9/1 102/10/1 103/11/1 104/12/1
f 105/13/1 106/14/1 107/15/1 108/16/1
f 109/5/1 110/6/1 111/7/1 112/8/1
f 113/17/1 114/18/1 115/19/1 116/20/1
f 117/21/1 118/22/1 119/23/1 120/24/1
f 121/9/1 122/10/1 123/11/1 124/12/1
f 125/17/1 126/18/1 127/19/1 128/20/1
f 129/21/1 130/22/1 131/23/1 132/24/1
f 133/13/1 134/14/1 135/15/1 136/16/1
f 137/9/1 138/10/1 139/11/1 140/12/1
f 141/17/1 142/18/1 143/19/1 144/20/1
f 145/21/1 146/22/1 147/23/1 148/24/1
f 149/13/1 150/14/1 151/15/1 152/16/1
f 153/9/1 154/10/1 155/11/1 156/12/1
f 157/17/1 158/18/1 159/19/1 160/20/1
f 161/21/1 162/22/1 163/23/1 164/24/1
f 165/13/1 166/14/1 167/15/1 168/16/1
f 169/17/1 170/18/1 171/19/1 172/20/1
f 173/21/1 174/22/1 175/23/1 176/24/1
f 177/17/1 178/18/1 179/19/1 180/20/1
f 181/21/1 182/22/1 183/23/1 184/24/1
f 185/17/1 186/18/1 187/19/1 188/20/1
f 189/21/1 190/22/1 191/23/1 192/24/1
f 193/25/1 194/26/1 195/27/1 196/28/1
f 197/1/1 198/2/1 199/3/1 200/4/1
f 201/5/1 202/6/1 203/7/1 204/8/1
f 205/1/1 206/2/1 207/3/1 208/4/1
f 209/9/1 210/10/1 211/11/1 212/12/1
f 213/13/1 214/14/1 215/15/1 216/16/1
f 217/5/1 218/6/1 219/7/1 220/8/1
f 221/1/1 222/2/1 223/3/1 224/4/1
f 225/5/1 226/6/1 227/7/1 228/8/1
f 229/9/1 230/10/1 231/11/1 232/12/1
f 233/17/1 234/18/1 235/19/1 236/20/1
f 237/21/1 238/22/1 239/23/1 240/24/1
f 241/13/1 242/14/1 243/15/1 244/16/1
f 245/1/1 246/2/1 247/3/1 248/4/1
f 249/9/1 250/10/1 251/11/1 252/12/1
f 253/13/1 254/14/1 255/15/1 256/16/1
f 257/5/1 258/6/1 259/7/1 260/8/1
f 261/17/1 262/18/1 263/19/1 264/20/1
f 265/21/1 266/22/1 267/23/1 268/24/1
f 269/9/1 270/10/1 271/11/1 272/12/1
f 273/17/1 274/18/1 275/19/1 276/20/1
f 277/21/1 278/22/1 279/23/1 280/24/1
f 281/13/1 282/14/1 283/15/1 284/16/1
f 285/17/1 286/18/1 287/19/1 288/20/1
f 289/21/1 290/22/1 291/23/1 292/24/1

